<svg xmlns="http://www.w3.org/2000/svg" fill="none" viewBox="0 0 1024 1024"><path fill="#FFFCF1" d="M815.175 543.863a38.09 38.09 0 0 1 32.988 19.046l97.041 168.08a38.09 38.09 0 0 1 0 38.09l-97.041 168.08a38.093 38.093 0 0 1-32.988 19.046H621.093a38.094 38.094 0 0 1-32.987-19.046l-97.041-168.08a38.09 38.09 0 0 1 0-38.09l97.041-168.08a38.091 38.091 0 0 1 32.987-19.046h78.297c-4.805 56.488-22.42 111.417-52.845 156.478-9.802 14.095-15.548 31.223-15.548 49.693 0 48.124 39.013 87.137 87.137 87.137 48.125 0 87.139-39.012 87.139-87.137 0-18.466-5.746-35.589-15.544-49.683-30.417-45.066-48.023-99.999-52.819-156.488h78.265ZM402.871 305.86a38.091 38.091 0 0 1 32.987 19.046l39.139 67.791c-51.429 24.134-107.93 36.351-162.258 32.467a88.258 88.258 0 0 0-6.909-.271c-48.125 0-87.138 39.013-87.138 87.138 0 48.125 39.013 87.137 87.138 87.137 35.101 0 65.353-20.754 79.157-50.661 23.84-48.586 62.465-91.057 108.772-123.313l39.14 67.792a38.09 38.09 0 0 1 0 38.09l-97.041 168.08a38.091 38.091 0 0 1-32.987 19.046H208.789a38.092 38.092 0 0 1-32.988-19.046l-97.04-168.08a38.09 38.09 0 0 1 0-38.09l97.04-168.08a38.092 38.092 0 0 1 32.988-19.046h194.082Zm265.019 55.186c17.467 36.63 27.969 77.437 31.505 119.09h-78.266a38.091 38.091 0 0 1-32.987-19.046l-39.14-67.792c37.845-17.76 78.437-29.066 118.888-32.252Zm147.321-293.25a38.09 38.09 0 0 1 32.988 19.044l97.041 168.08a38.092 38.092 0 0 1 0 38.091L848.199 461.09a38.09 38.09 0 0 1-32.988 19.046h-78.296c4.803-56.474 22.411-111.391 52.821-156.446 9.816-14.101 15.573-31.241 15.573-49.725 0-48.125-39.014-87.137-87.139-87.137-35.093 0-65.34 20.745-79.148 50.641-23.84 48.595-62.468 91.073-108.781 123.333l-39.14-67.792a38.09 38.09 0 0 1 0-38.09l97.041-168.08a38.09 38.09 0 0 1 32.987-19.045h194.082Z"/></svg>