<svg xmlns="http://www.w3.org/2000/svg" fill="none" viewBox="0 0 1130 150"><path fill="#1C0E08" d="M109.371 72.5a5.619 5.619 0 0 1 4.865 2.809L128.55 100.1a5.62 5.62 0 0 1 0 5.618l-14.314 24.791a5.62 5.62 0 0 1-4.865 2.81H80.745a5.62 5.62 0 0 1-4.866-2.81l-14.313-24.791a5.618 5.618 0 0 1 0-5.618L75.88 75.309a5.62 5.62 0 0 1 4.866-2.81h11.549c-.712 8.371-3.333 16.51-7.859 23.173a12.794 12.794 0 0 0-2.23 7.236c0 7.099 5.754 12.853 12.852 12.853 7.099 0 12.853-5.754 12.853-12.853 0-2.687-.825-5.18-2.235-7.243-4.522-6.663-7.138-14.799-7.848-23.166h11.544ZM48.557 37.394a5.618 5.618 0 0 1 4.866 2.81l5.772 9.997c-7.595 3.564-15.939 5.367-23.96 4.788a13.03 13.03 0 0 0-.991-.039c-7.098 0-12.852 5.755-12.853 12.853 0 7.098 5.755 12.852 12.853 12.852 5.153 0 9.597-3.032 11.646-7.41 3.514-7.192 9.224-13.479 16.073-18.25l5.773 10a5.618 5.618 0 0 1 0 5.618l-14.313 24.79a5.618 5.618 0 0 1-4.866 2.81H19.931a5.62 5.62 0 0 1-4.866-2.81L.753 70.614a5.618 5.618 0 0 1 0-5.619l14.312-24.79a5.62 5.62 0 0 1 4.866-2.81h28.626Zm39.088 8.14c2.577 5.403 4.127 11.421 4.649 17.565H80.75a5.618 5.618 0 0 1-4.865-2.809l-5.774-10c5.581-2.619 11.568-4.285 17.534-4.756Zm21.732-43.254a5.618 5.618 0 0 1 4.865 2.81l14.313 24.79a5.616 5.616 0 0 1 0 5.618l-14.313 24.792a5.619 5.619 0 0 1-4.865 2.809h-11.55c.713-8.37 3.331-16.51 7.857-23.174a12.79 12.79 0 0 0 2.232-7.235c0-7.099-5.755-12.853-12.853-12.853-5.142 0-9.58 3.02-11.635 7.384-3.512 7.203-9.227 13.5-16.084 18.276L61.57 35.5a5.62 5.62 0 0 1 0-5.618l14.314-24.79a5.618 5.618 0 0 1 4.865-2.81h28.627ZM176.308 117.6V7.2h19.52v44.32h46.56V7.2h19.52v110.4h-19.52V69.28h-46.56v48.32h-19.52ZM283.84 19.04V0h19.68v19.04h-19.68Zm.48 98.56v-84h18.72v84h-18.72ZM314.817 36.48l1.92-2.88h16.16l21.12 67.68h2.4l21.12-67.68h16.16l1.92 2.88-26.24 81.12h-28.16l-26.4-81.12ZM406.172 92.32V58.88c0-16.853 8.426-25.28 25.28-25.28h20.8c16.746 0 25.12 8.427 25.12 25.28v23.68h-52.48v11.36c0 4.907 2.453 7.36 7.36 7.36h41.92v10.08l-8.48 6.24h-34.24c-16.854 0-25.28-8.427-25.28-25.28ZM424.892 68h33.76V57.28c0-4.907-2.454-7.36-7.36-7.36h-19.04c-4.907 0-7.36 2.453-7.36 7.36V68ZM534.865 117.6V7.2h10.72v100.64h55.52v9.76h-66.24ZM613.629 94.08V58.24c0-15.68 7.84-23.52 23.52-23.52h22.4c15.574 0 23.36 7.84 23.36 23.52v35.84c0 15.68-7.786 23.52-23.36 23.52h-22.4c-15.68 0-23.52-7.84-23.52-23.52Zm10.08 1.6c0 8.747 4.374 13.12 13.12 13.12h23.04c8.64 0 12.96-4.373 12.96-13.12V56.64c0-8.64-4.32-12.96-12.96-12.96h-23.04c-8.746 0-13.12 4.32-13.12 12.96v39.04ZM703.714 94.08V58.24c0-15.68 7.84-23.52 23.52-23.52h44.32v91.36c0 15.68-7.84 23.52-23.52 23.52h-32.64l-5.44-4.16v-4.64h38.4c8.747 0 13.12-4.373 13.12-13.12V117.6h-34.24c-15.68 0-23.52-7.84-23.52-23.52Zm10.08 1.6c0 8.747 4.374 13.12 13.12 13.12h34.56V43.68h-34.56c-8.746 0-13.12 4.32-13.12 12.96v39.04ZM794.119 18.88V5.76h11.52v13.12h-11.52Zm.64 98.72V34.72h10.08v82.88h-10.08ZM824.605 113.44v-4.64h37.121c8.533 0 12.8-4.267 12.8-12.8 0-8.533-3.414-13.333-10.24-14.4l-19.52-3.36c-13.44-2.24-20.161-9.333-20.161-21.28 0-14.827 7.894-22.24 23.681-22.24h27.04l5.44 4.16v4.8h-33.12c-8.64 0-12.961 4.213-12.961 12.64 0 7.467 3.574 11.787 10.721 12.96l19.68 3.36c13.013 2.133 19.519 9.707 19.519 22.72 0 14.827-7.893 22.24-23.68 22.24h-30.88l-5.44-4.16ZM903.813 94.08V7.2h10.08v27.52h31.36v8.96h-31.36v52c0 8.747 4.373 13.12 13.12 13.12h19.84v4.64l-5.44 4.16h-14.08c-15.68 0-23.52-7.84-23.52-23.52ZM961.863 18.88V5.76h11.52v13.12h-11.52Zm.64 98.72V34.72h10.08v82.88h-10.08ZM994.429 94.08V58.24c0-15.68 7.841-23.52 23.521-23.52h31.84l5.44 4.16v4.8h-37.6c-8.75 0-13.12 4.32-13.12 12.96v39.04c0 8.747 4.37 13.12 13.12 13.12h37.6v4.64l-5.44 4.16h-31.84c-15.68 0-23.521-7.84-23.521-23.52ZM1069.15 113.44v-4.64h37.12c8.53 0 12.8-4.267 12.8-12.8 0-8.533-3.41-13.333-10.24-14.4l-19.52-3.36c-13.44-2.24-20.16-9.333-20.16-21.28 0-14.827 7.89-22.24 23.68-22.24h27.04l5.44 4.16v4.8h-33.12c-8.64 0-12.96 4.213-12.96 12.64 0 7.467 3.57 11.787 10.72 12.96l19.68 3.36c13.01 2.133 19.52 9.707 19.52 22.72 0 14.827-7.89 22.24-23.68 22.24h-30.88l-5.44-4.16Z"/></svg>